<mxfile host="Electron" agent="Mozilla/5.0 (Windows NT 10.0; Win64; x64) AppleWebKit/537.36 (KHTML, like Gecko) draw.io/26.0.16 Chrome/132.0.6834.196 Electron/34.2.0 Safari/537.36" version="26.0.16">
  <diagram id="8pmkVMiRLyPJwu72uxfV" name="Page-1">
    <mxGraphModel dx="1196" dy="1916" grid="1" gridSize="10" guides="1" tooltips="1" connect="1" arrows="1" fold="1" page="1" pageScale="1" pageWidth="850" pageHeight="1100" math="0" shadow="0">
      <root>
        <mxCell id="0" />
        <mxCell id="1" parent="0" />
        <mxCell id="q8o27ygsZgurRGWUQ3dN-19" value="" style="rounded=1;whiteSpace=wrap;html=1;fillColor=none;dashed=1;" vertex="1" parent="1">
          <mxGeometry x="50" y="50" width="610" height="460" as="geometry" />
        </mxCell>
        <mxCell id="q8o27ygsZgurRGWUQ3dN-39" style="edgeStyle=orthogonalEdgeStyle;rounded=0;orthogonalLoop=1;jettySize=auto;html=1;" edge="1" parent="1" source="2" target="q8o27ygsZgurRGWUQ3dN-32">
          <mxGeometry relative="1" as="geometry" />
        </mxCell>
        <mxCell id="2" value="crm_cust_info" style="swimlane;fontStyle=0;childLayout=stackLayout;horizontal=1;startSize=30;horizontalStack=0;resizeParent=1;resizeParentMax=0;resizeLast=0;collapsible=1;marginBottom=0;whiteSpace=wrap;html=1;fillColor=#dae8fc;strokeColor=#6c8ebf;" parent="1" vertex="1">
          <mxGeometry x="400" y="330" width="200" height="90" as="geometry" />
        </mxCell>
        <mxCell id="3" value="cst_id" style="text;strokeColor=none;fillColor=none;align=left;verticalAlign=middle;spacingLeft=4;spacingRight=4;overflow=hidden;points=[[0,0.5],[1,0.5]];portConstraint=eastwest;rotatable=0;whiteSpace=wrap;html=1;" parent="2" vertex="1">
          <mxGeometry y="30" width="200" height="30" as="geometry" />
        </mxCell>
        <mxCell id="4" value="cst_key" style="text;strokeColor=none;fillColor=none;align=left;verticalAlign=middle;spacingLeft=4;spacingRight=4;overflow=hidden;points=[[0,0.5],[1,0.5]];portConstraint=eastwest;rotatable=0;whiteSpace=wrap;html=1;" parent="2" vertex="1">
          <mxGeometry y="60" width="200" height="30" as="geometry" />
        </mxCell>
        <mxCell id="6" value="CUSTOMER" style="rounded=0;whiteSpace=wrap;html=1;fillColor=#f8cecc;strokeColor=#b85450;" parent="1" vertex="1">
          <mxGeometry x="400" y="420" width="200" height="30" as="geometry" />
        </mxCell>
        <mxCell id="7" value="crm_ptd_info" style="swimlane;fontStyle=0;childLayout=stackLayout;horizontal=1;startSize=30;horizontalStack=0;resizeParent=1;resizeParentMax=0;resizeLast=0;collapsible=1;marginBottom=0;whiteSpace=wrap;html=1;fillColor=#dae8fc;strokeColor=#6c8ebf;" parent="1" vertex="1">
          <mxGeometry x="400" y="140" width="200" height="60" as="geometry" />
        </mxCell>
        <mxCell id="9" value="prd_key" style="text;strokeColor=none;fillColor=none;align=left;verticalAlign=middle;spacingLeft=4;spacingRight=4;overflow=hidden;points=[[0,0.5],[1,0.5]];portConstraint=eastwest;rotatable=0;whiteSpace=wrap;html=1;" parent="7" vertex="1">
          <mxGeometry y="30" width="200" height="30" as="geometry" />
        </mxCell>
        <mxCell id="10" value="PRODUCT" style="rounded=0;whiteSpace=wrap;html=1;fillColor=#ffe6cc;strokeColor=#d79b00;" parent="1" vertex="1">
          <mxGeometry x="400" y="200" width="200" height="30" as="geometry" />
        </mxCell>
        <mxCell id="q8o27ygsZgurRGWUQ3dN-17" style="edgeStyle=orthogonalEdgeStyle;rounded=0;orthogonalLoop=1;jettySize=auto;html=1;" edge="1" parent="1" source="11" target="9">
          <mxGeometry relative="1" as="geometry" />
        </mxCell>
        <mxCell id="11" value="crm_sales_info" style="swimlane;fontStyle=0;childLayout=stackLayout;horizontal=1;startSize=30;horizontalStack=0;resizeParent=1;resizeParentMax=0;resizeLast=0;collapsible=1;marginBottom=0;whiteSpace=wrap;html=1;fillColor=#dae8fc;strokeColor=#6c8ebf;" parent="1" vertex="1">
          <mxGeometry x="80" y="220" width="200" height="90" as="geometry" />
        </mxCell>
        <mxCell id="16" style="edgeStyle=none;html=1;" parent="11" source="12" target="11" edge="1">
          <mxGeometry relative="1" as="geometry" />
        </mxCell>
        <mxCell id="12" value="prd_key" style="text;strokeColor=none;fillColor=none;align=left;verticalAlign=middle;spacingLeft=4;spacingRight=4;overflow=hidden;points=[[0,0.5],[1,0.5]];portConstraint=eastwest;rotatable=0;whiteSpace=wrap;html=1;" parent="11" vertex="1">
          <mxGeometry y="30" width="200" height="30" as="geometry" />
        </mxCell>
        <mxCell id="13" value="cst_id" style="text;strokeColor=none;fillColor=none;align=left;verticalAlign=middle;spacingLeft=4;spacingRight=4;overflow=hidden;points=[[0,0.5],[1,0.5]];portConstraint=eastwest;rotatable=0;whiteSpace=wrap;html=1;" parent="11" vertex="1">
          <mxGeometry y="60" width="200" height="30" as="geometry" />
        </mxCell>
        <mxCell id="14" value="SALES" style="rounded=0;whiteSpace=wrap;html=1;fillColor=#e1d5e7;strokeColor=#9673a6;" parent="1" vertex="1">
          <mxGeometry x="80" y="310" width="200" height="30" as="geometry" />
        </mxCell>
        <mxCell id="q8o27ygsZgurRGWUQ3dN-18" style="edgeStyle=orthogonalEdgeStyle;rounded=0;orthogonalLoop=1;jettySize=auto;html=1;" edge="1" parent="1" source="13" target="4">
          <mxGeometry relative="1" as="geometry" />
        </mxCell>
        <mxCell id="q8o27ygsZgurRGWUQ3dN-20" value="CRM" style="rounded=0;whiteSpace=wrap;html=1;fillColor=#1ba1e2;fontColor=#ffffff;strokeColor=#006EAF;" vertex="1" parent="1">
          <mxGeometry x="327.5" y="30" width="95" height="40" as="geometry" />
        </mxCell>
        <mxCell id="q8o27ygsZgurRGWUQ3dN-21" value="" style="rounded=0;whiteSpace=wrap;html=1;fillColor=none;" vertex="1" parent="1">
          <mxGeometry x="800" y="50" width="220" height="470" as="geometry" />
        </mxCell>
        <mxCell id="q8o27ygsZgurRGWUQ3dN-22" value="&lt;font&gt;Transactional Records about Sales &amp;amp; Orders&lt;/font&gt;" style="text;html=1;align=center;verticalAlign=middle;whiteSpace=wrap;rounded=0;" vertex="1" parent="1">
          <mxGeometry x="100" y="350" width="160" height="30" as="geometry" />
        </mxCell>
        <mxCell id="q8o27ygsZgurRGWUQ3dN-23" value="&lt;font&gt;Current &amp;amp; History Product Infromation&lt;/font&gt;" style="text;html=1;align=center;verticalAlign=middle;whiteSpace=wrap;rounded=0;" vertex="1" parent="1">
          <mxGeometry x="410" y="100" width="160" height="30" as="geometry" />
        </mxCell>
        <mxCell id="q8o27ygsZgurRGWUQ3dN-24" value="&lt;font style=&quot;font-size: 13px;&quot;&gt;Customer Information&lt;/font&gt;" style="text;html=1;align=center;verticalAlign=middle;whiteSpace=wrap;rounded=0;" vertex="1" parent="1">
          <mxGeometry x="410" y="290" width="160" height="30" as="geometry" />
        </mxCell>
        <mxCell id="q8o27ygsZgurRGWUQ3dN-25" value="&lt;font style=&quot;font-size: 17px;&quot;&gt;erp_px_cat_g1v2&lt;/font&gt;" style="swimlane;fontStyle=0;childLayout=stackLayout;horizontal=1;startSize=30;horizontalStack=0;resizeParent=1;resizeParentMax=0;resizeLast=0;collapsible=1;marginBottom=0;whiteSpace=wrap;html=1;fillColor=#dae8fc;strokeColor=#6c8ebf;" vertex="1" parent="1">
          <mxGeometry x="810" y="140" width="200" height="60" as="geometry" />
        </mxCell>
        <mxCell id="q8o27ygsZgurRGWUQ3dN-26" value="id" style="text;strokeColor=none;fillColor=none;align=left;verticalAlign=middle;spacingLeft=4;spacingRight=4;overflow=hidden;points=[[0,0.5],[1,0.5]];portConstraint=eastwest;rotatable=0;whiteSpace=wrap;html=1;" vertex="1" parent="q8o27ygsZgurRGWUQ3dN-25">
          <mxGeometry y="30" width="200" height="30" as="geometry" />
        </mxCell>
        <mxCell id="q8o27ygsZgurRGWUQ3dN-27" value="PRODUCT" style="rounded=0;whiteSpace=wrap;html=1;fillColor=#ffe6cc;strokeColor=#d79b00;" vertex="1" parent="1">
          <mxGeometry x="810" y="200" width="200" height="30" as="geometry" />
        </mxCell>
        <mxCell id="q8o27ygsZgurRGWUQ3dN-28" value="&lt;font style=&quot;font-size: 13px;&quot;&gt;Product Categories&lt;/font&gt;" style="text;html=1;align=center;verticalAlign=middle;whiteSpace=wrap;rounded=0;" vertex="1" parent="1">
          <mxGeometry x="830" y="110" width="160" height="30" as="geometry" />
        </mxCell>
        <mxCell id="q8o27ygsZgurRGWUQ3dN-29" value="&lt;font style=&quot;font-size: 19px;&quot;&gt;erp_cust_az12&lt;/font&gt;" style="swimlane;fontStyle=0;childLayout=stackLayout;horizontal=1;startSize=30;horizontalStack=0;resizeParent=1;resizeParentMax=0;resizeLast=0;collapsible=1;marginBottom=0;whiteSpace=wrap;html=1;fillColor=#dae8fc;strokeColor=#6c8ebf;" vertex="1" parent="1">
          <mxGeometry x="810" y="280" width="200" height="60" as="geometry" />
        </mxCell>
        <mxCell id="q8o27ygsZgurRGWUQ3dN-30" value="Cid" style="text;strokeColor=none;fillColor=none;align=left;verticalAlign=middle;spacingLeft=4;spacingRight=4;overflow=hidden;points=[[0,0.5],[1,0.5]];portConstraint=eastwest;rotatable=0;whiteSpace=wrap;html=1;" vertex="1" parent="q8o27ygsZgurRGWUQ3dN-29">
          <mxGeometry y="30" width="200" height="30" as="geometry" />
        </mxCell>
        <mxCell id="q8o27ygsZgurRGWUQ3dN-31" value="CUSTOMER" style="rounded=0;whiteSpace=wrap;html=1;fillColor=#d5e8d4;strokeColor=#82b366;" vertex="1" parent="1">
          <mxGeometry x="810" y="340" width="200" height="30" as="geometry" />
        </mxCell>
        <mxCell id="q8o27ygsZgurRGWUQ3dN-32" value="&lt;font style=&quot;font-size: 20px;&quot;&gt;erp_loc_a101&lt;/font&gt;" style="swimlane;fontStyle=0;childLayout=stackLayout;horizontal=1;startSize=30;horizontalStack=0;resizeParent=1;resizeParentMax=0;resizeLast=0;collapsible=1;marginBottom=0;whiteSpace=wrap;html=1;fillColor=#dae8fc;strokeColor=#6c8ebf;" vertex="1" parent="1">
          <mxGeometry x="810" y="410" width="200" height="60" as="geometry" />
        </mxCell>
        <mxCell id="q8o27ygsZgurRGWUQ3dN-33" value="Cid" style="text;strokeColor=none;fillColor=none;align=left;verticalAlign=middle;spacingLeft=4;spacingRight=4;overflow=hidden;points=[[0,0.5],[1,0.5]];portConstraint=eastwest;rotatable=0;whiteSpace=wrap;html=1;" vertex="1" parent="q8o27ygsZgurRGWUQ3dN-32">
          <mxGeometry y="30" width="200" height="30" as="geometry" />
        </mxCell>
        <mxCell id="q8o27ygsZgurRGWUQ3dN-34" value="CUSTOMER" style="rounded=0;whiteSpace=wrap;html=1;fillColor=#d5e8d4;strokeColor=#82b366;" vertex="1" parent="1">
          <mxGeometry x="810" y="470" width="200" height="30" as="geometry" />
        </mxCell>
        <mxCell id="q8o27ygsZgurRGWUQ3dN-35" value="&lt;font style=&quot;font-size: 11px;&quot;&gt;Extra Customer Information (Birthdate)&lt;/font&gt;" style="text;html=1;align=center;verticalAlign=middle;whiteSpace=wrap;rounded=0;" vertex="1" parent="1">
          <mxGeometry x="830" y="250" width="160" height="30" as="geometry" />
        </mxCell>
        <mxCell id="q8o27ygsZgurRGWUQ3dN-36" value="&lt;font style=&quot;font-size: 11px;&quot;&gt;Location of Customers (Country)&lt;/font&gt;" style="text;html=1;align=center;verticalAlign=middle;whiteSpace=wrap;rounded=0;" vertex="1" parent="1">
          <mxGeometry x="830" y="380" width="160" height="30" as="geometry" />
        </mxCell>
        <mxCell id="q8o27ygsZgurRGWUQ3dN-37" style="edgeStyle=orthogonalEdgeStyle;rounded=0;orthogonalLoop=1;jettySize=auto;html=1;entryX=0;entryY=0.5;entryDx=0;entryDy=0;" edge="1" parent="1" source="9" target="q8o27ygsZgurRGWUQ3dN-26">
          <mxGeometry relative="1" as="geometry" />
        </mxCell>
        <mxCell id="q8o27ygsZgurRGWUQ3dN-38" style="edgeStyle=orthogonalEdgeStyle;rounded=0;orthogonalLoop=1;jettySize=auto;html=1;entryX=0;entryY=0.25;entryDx=0;entryDy=0;" edge="1" parent="1" source="3" target="q8o27ygsZgurRGWUQ3dN-29">
          <mxGeometry relative="1" as="geometry" />
        </mxCell>
        <mxCell id="q8o27ygsZgurRGWUQ3dN-40" value="ERP" style="rounded=0;whiteSpace=wrap;html=1;fillColor=#008a00;fontColor=#ffffff;strokeColor=#005700;" vertex="1" parent="1">
          <mxGeometry x="862.5" y="30" width="95" height="40" as="geometry" />
        </mxCell>
        <mxCell id="q8o27ygsZgurRGWUQ3dN-41" value="&lt;font&gt;Customer Relationship Management&lt;/font&gt;" style="text;html=1;align=center;verticalAlign=middle;whiteSpace=wrap;rounded=0;" vertex="1" parent="1">
          <mxGeometry x="281.5" y="-10" width="187" height="30" as="geometry" />
        </mxCell>
      </root>
    </mxGraphModel>
  </diagram>
</mxfile>
